<svg width="59" height="59" viewBox="0 0 59 59" fill="none" xmlns="http://www.w3.org/2000/svg">
<rect x="13.1118" y="13.1115" width="36.0556" height="32.7778" fill="white"/>
<path d="M59 30.8828C59 32.9455 58.5045 34.8584 57.5135 36.61C56.5225 38.3615 55.1973 39.7328 53.5264 40.6893C53.5725 41.0004 53.5955 41.4844 53.5955 42.1412C53.5955 45.2641 52.5469 47.9145 50.4727 50.1039C48.3869 52.3049 45.8748 53.3996 42.9363 53.3996C41.6227 53.3996 40.3666 53.1576 39.1797 52.6736C38.2578 54.5635 36.9326 56.0846 35.1926 57.2484C33.4641 58.4238 31.5627 59 29.5 59C27.3912 59 25.4783 58.4353 23.7729 57.283C22.0559 56.1422 20.7422 54.6096 19.8203 52.6736C18.6334 53.1576 17.3889 53.3996 16.0637 53.3996C13.1252 53.3996 10.6016 52.3049 8.49277 50.1039C6.38398 47.9145 5.33535 45.2525 5.33535 42.1412C5.33535 41.7955 5.38145 41.3115 5.46211 40.6893C3.79121 39.7213 2.46602 38.3615 1.475 36.61C0.495508 34.8584 0 32.9455 0 30.8828C0 28.6934 0.553125 26.6768 1.64785 24.8561C2.74258 23.0353 4.21758 21.6871 6.06133 20.8113C5.57734 19.4977 5.33535 18.1725 5.33535 16.8588C5.33535 13.7475 6.38398 11.0855 8.49277 8.89609C10.6016 6.70664 13.1252 5.60039 16.0637 5.60039C17.3773 5.60039 18.6334 5.84238 19.8203 6.32637C20.7422 4.43652 22.0674 2.91543 23.8074 1.75156C25.5359 0.587695 27.4373 0 29.5 0C31.5627 0 33.4641 0.587695 35.1926 1.74004C36.9211 2.90391 38.2578 4.425 39.1797 6.31484C40.3666 5.83086 41.6111 5.58887 42.9363 5.58887C45.8748 5.58887 48.3869 6.68359 50.4727 8.88457C52.5584 11.0855 53.5955 13.7359 53.5955 16.8473C53.5955 18.2992 53.3766 19.6129 52.9387 20.7998C54.7824 21.6756 56.2574 23.0238 57.3521 24.8445C58.4469 26.6768 59 28.6934 59 30.8828ZM28.2439 39.7674L40.4242 21.5258C40.7353 21.0418 40.8275 20.5117 40.7238 19.9471C40.6086 19.3824 40.3205 18.933 39.8365 18.6334C39.3525 18.3223 38.8225 18.2186 38.2578 18.2992C37.6816 18.3914 37.2207 18.668 36.875 19.152L26.1467 35.2848L21.2031 30.3527C20.7652 29.9148 20.2582 29.7074 19.6936 29.7305C19.1174 29.7535 18.6219 29.9609 18.184 30.3527C17.7922 30.7445 17.5963 31.24 17.5963 31.8393C17.5963 32.427 17.7922 32.9225 18.184 33.3258L24.9713 40.1131L25.3055 40.3781C25.6973 40.6432 26.1006 40.7699 26.4924 40.7699C27.2645 40.7584 27.8521 40.4357 28.2439 39.7674Z" fill="#D88977"/>
</svg>
